<?xml version="1.0" standalone="no"?>
<!DOCTYPE svg PUBLIC "-//W3C//DTD SVG 20010904//EN"
 "http://www.w3.org/TR/2001/REC-SVG-20010904/DTD/svg10.dtd">
<svg version="1.0" xmlns="http://www.w3.org/2000/svg"
 width="2560.000000pt" height="1707.000000pt" viewBox="0 0 2560.000000 1707.000000"
 preserveAspectRatio="xMidYMid meet">

<g transform="translate(0.000000,1707.000000) scale(0.100000,-0.100000)"
fill="#000000" stroke="none">
<path d="M9605 9185 c-86 -25 -270 -98 -369 -146 l-59 -29 -45 30 c-56 37
-104 46 -159 32 -55 -15 -133 -63 -160 -100 -26 -36 -46 -107 -39 -137 5 -21
-6 -30 -119 -89 -69 -36 -133 -71 -143 -77 -16 -10 -25 -8 -53 14 -69 52 -141
55 -229 11 -91 -45 -148 -133 -138 -212 6 -44 14 -36 -120 -114 -46 -26 -87
-48 -93 -48 -5 0 -26 16 -46 35 -61 59 -144 71 -229 31 -146 -68 -191 -190
-115 -312 l29 -47 -43 -53 c-203 -249 -316 -534 -332 -838 -11 -211 29 -407
127 -620 17 -37 30 -70 28 -72 -6 -6 -384 135 -511 190 l-38 17 7 -38 c4 -21
20 -84 35 -141 42 -150 42 -149 -33 -111 -35 18 -92 49 -127 71 l-64 39 -26
-25 c-61 -57 -106 -70 -251 -76 l-135 -5 -12 -65 c-29 -154 -8 -395 58 -665
20 -86 21 -98 10 -255 -23 -318 -29 -376 -55 -489 -40 -176 -38 -185 55 -198
l54 -8 12 -155 c12 -144 54 -547 88 -825 23 -193 20 -250 -15 -313 -77 -134
-331 -353 -740 -640 l-62 -43 7 -42 c8 -50 73 -190 108 -232 l26 -30 48 25
c85 43 295 170 408 248 149 102 232 169 348 282 117 113 192 209 242 306 62
123 105 395 128 814 l12 215 26 -45 c80 -141 140 -247 189 -335 18 -33 43 -79
56 -102 180 -327 264 -487 277 -528 27 -84 64 -297 101 -585 52 -393 76 -554
86 -564 16 -16 143 -7 268 20 28 6 32 10 32 39 0 108 -118 1040 -150 1189 -49
222 -367 1197 -486 1490 -50 122 -52 131 -38 157 21 42 18 69 -25 182 -22 57
-47 143 -55 191 -17 97 -42 466 -33 489 5 12 18 11 87 -9 45 -13 101 -24 124
-24 38 0 176 20 351 51 l70 12 123 -61 c227 -112 401 -152 660 -153 105 0 181
6 267 21 88 15 121 17 124 9 10 -30 76 -89 117 -105 85 -33 196 4 269 88 39
46 50 88 42 153 l-6 43 118 47 117 47 48 -33 c44 -31 53 -34 124 -34 68 0 83
3 127 31 67 41 108 101 115 166 l5 51 149 65 c120 52 153 62 165 53 46 -34
106 -53 150 -49 119 12 230 115 231 215 0 30 6 35 94 83 52 28 109 64 127 81
29 27 31 33 26 77 -8 67 -85 294 -168 494 -38 92 -69 169 -69 172 0 10 -149
353 -237 546 -105 229 -366 761 -441 895 -94 171 -175 298 -218 342 -36 38
-45 43 -85 42 -24 0 -80 -11 -124 -24z m-1370 -2916 l-7 -49 59 0 c107 -1 163
-42 163 -120 0 -60 -98 -83 -258 -60 l-87 12 -30 72 c-17 39 -31 74 -33 77 -1
4 11 9 27 12 17 4 57 31 91 62 33 31 65 53 71 49 7 -4 8 -25 4 -55z m-1490
-248 l80 -26 7 -90 c4 -49 19 -139 33 -200 40 -177 48 -247 71 -576 l6 -96
-74 -31 c-77 -32 -146 -51 -185 -52 -17 0 -23 6 -23 21 0 12 -10 73 -22 137
-21 110 -21 125 -10 287 16 225 15 406 -3 540 -8 61 -15 113 -15 118 0 9 29 2
135 -32z"/>
<path d="M17872 7548 c-5 -7 -41 -74 -79 -148 -179 -348 -239 -436 -363 -526
-172 -126 -345 -196 -519 -212 l-76 -7 -1 -165 c-1 -192 -5 -228 -46 -364 -67
-225 -69 -240 -78 -476 -5 -124 -14 -261 -20 -305 -14 -102 -54 -253 -79 -304
-20 -39 -21 -39 -107 -51 -75 -11 -167 -10 -179 1 -2 2 1 67 5 144 8 137 10
145 78 350 79 237 104 342 126 535 16 134 36 387 36 446 l0 32 -42 -15 c-60
-21 -140 -12 -284 32 l-121 37 -54 -32 c-30 -17 -90 -54 -134 -81 -134 -83
-316 -170 -366 -176 -46 -5 -190 27 -215 48 -8 6 -27 6 -56 0 -56 -13 -285
-48 -366 -57 -61 -7 -63 -7 -45 -25 57 -55 331 -201 463 -245 76 -26 97 -29
196 -27 129 2 273 31 377 74 120 51 108 62 102 -102 -3 -79 -8 -173 -10 -209
-7 -101 -66 -299 -140 -470 -80 -185 -115 -281 -115 -315 0 -29 54 -69 108
-80 17 -4 32 -11 32 -17 0 -5 -18 -105 -40 -221 -23 -117 -66 -358 -96 -537
-75 -441 -96 -521 -147 -555 -77 -50 -503 -152 -947 -227 -130 -22 -135 -24
-149 -53 -19 -39 -28 -263 -12 -293 14 -27 30 -27 211 -7 592 68 1040 164
1179 255 46 29 58 44 120 149 87 145 277 576 407 924 16 42 32 77 36 77 7 0
168 -163 303 -305 231 -244 458 -581 514 -763 40 -130 127 -486 200 -822 34
-151 63 -285 66 -298 4 -18 12 -22 43 -22 71 0 269 60 316 95 18 14 18 17 2
107 -35 194 -161 782 -223 1039 -38 159 -141 360 -583 1134 -75 132 -151 265
-168 296 l-31 56 25 49 c47 96 55 162 64 574 9 398 14 451 50 535 73 171 84
186 238 317 239 203 438 386 479 441 96 128 353 603 353 653 0 29 -48 67 -128
99 -69 28 -95 31 -110 13z"/>
<path d="M6527 7280 c-26 -23 -44 -30 -74 -30 -42 0 -60 -14 -81 -63 -6 -15
-24 -32 -39 -38 -70 -26 -80 -70 -33 -140 16 -24 30 -54 30 -66 0 -64 55 -103
147 -105 61 -1 69 11 33 52 -43 51 -39 66 14 60 32 -3 66 10 66 25 0 8 -13 21
-30 30 -27 14 -42 45 -21 45 4 0 20 11 35 25 25 23 26 27 12 46 -13 20 -12 25
15 62 36 50 37 79 3 106 -34 27 -37 27 -77 -9z"/>
<path d="M16551 7226 c-21 -31 -41 -46 -70 -54 -71 -22 -98 -80 -66 -141 10
-21 12 -37 5 -61 -7 -23 -6 -41 3 -59 15 -31 107 -80 165 -88 39 -5 42 -4 42
17 0 13 -11 33 -25 46 -28 26 -32 56 -10 74 25 20 38 6 73 -79 20 -46 41 -83
51 -86 17 -5 91 6 162 25 38 11 57 36 39 54 -6 6 -27 4 -63 -7 -67 -21 -87
-21 -87 -1 0 9 23 26 56 41 51 23 74 46 61 59 -3 4 -37 -8 -76 -26 -38 -18
-77 -30 -85 -27 -19 7 -39 72 -32 101 3 12 17 28 32 35 22 10 25 16 21 39 -5
23 0 33 29 55 36 29 42 54 23 90 -18 33 -24 35 -125 35 l-94 1 -29 -43z"/>
<path d="M11957 6836 c-82 -23 -148 -106 -181 -231 -9 -33 -21 -76 -26 -96
-12 -43 -29 -51 -140 -68 -91 -14 -153 -42 -168 -77 -7 -14 -12 -47 -12 -74 0
-57 -15 -70 -76 -70 -25 0 -51 -9 -76 -26 -38 -27 -98 -106 -98 -131 0 -23 37
-51 82 -64 67 -18 306 -6 402 19 169 46 358 160 405 243 21 37 25 59 27 145 2
97 1 103 -22 123 -13 11 -24 27 -24 36 0 21 32 35 53 24 30 -17 52 -1 91 64
39 66 41 94 8 131 -43 49 -164 74 -245 52z"/>
<path d="M16440 6721 c-68 -19 -164 -63 -175 -81 -9 -14 135 -80 174 -80 16 0
53 5 81 11 55 12 52 5 53 119 0 44 0 45 -34 47 -19 1 -63 -6 -99 -16z"/>
<path d="M6404 6667 c-58 -43 -160 -142 -176 -171 -7 -12 0 -17 29 -22 83 -17
145 -10 206 21 62 32 61 30 46 95 -20 89 -30 120 -38 120 -5 0 -35 -20 -67
-43z"/>
<path d="M11735 4905 c-73 -124 -118 -275 -170 -572 -65 -376 -91 -468 -195
-678 -44 -89 -99 -179 -149 -247 -74 -99 -78 -107 -62 -122 37 -34 105 -47
281 -56 156 -8 182 -12 240 -36 81 -34 213 -60 360 -73 146 -12 227 -2 305 37
72 37 150 58 260 72 336 42 378 52 460 108 32 22 41 35 43 62 12 118 -118 513
-410 1247 l-119 301 -32 -13 c-53 -22 -213 -35 -429 -35 -204 0 -333 15 -349
41 -4 7 -18 -7 -34 -36z"/>
<path d="M14227 3211 c-21 -4 -42 -12 -47 -17 -5 -5 -12 -134 -16 -286 -7
-301 -3 -333 42 -344 38 -10 73 4 78 29 2 12 9 67 15 123 6 55 16 116 21 136
13 45 46 88 68 88 38 0 40 11 31 134 -5 66 -12 123 -17 128 -12 12 -131 18
-175 9z"/>
<path d="M16730 2951 c-11 -8 7 -11 68 -11 84 0 177 -23 228 -57 14 -9 28 -13
31 -9 10 9 -25 32 -87 56 -62 25 -215 38 -240 21z"/>
<path d="M16690 2869 c-57 -16 -90 -31 -90 -41 0 -6 8 -7 18 -3 90 38 186 45
267 20 49 -14 72 -12 45 5 -43 27 -173 37 -240 19z"/>
<path d="M5388 2620 c-57 -17 -129 -64 -134 -87 -4 -15 24 -100 86 -260 51
-131 99 -253 108 -271 18 -40 46 -53 84 -40 48 17 52 31 29 103 -42 128 -60
249 -45 290 4 8 19 22 35 30 l28 15 -54 112 c-48 103 -56 113 -82 115 -15 1
-40 -2 -55 -7z"/>
<path d="M10504 2446 c-18 -8 -34 -19 -38 -24 -11 -18 16 -152 30 -152 16 0
20 -12 40 -150 19 -134 54 -211 118 -266 62 -53 96 -42 96 32 0 74 -20 148
-55 205 -51 83 -60 135 -35 206 25 71 27 148 4 157 -28 11 -128 6 -160 -8z"/>
<path d="M17815 2084 c-38 -13 -90 -29 -115 -36 -40 -12 -45 -16 -48 -45 -4
-42 24 -152 45 -175 9 -10 26 -18 39 -18 52 0 549 111 566 127 23 21 23 75 0
96 -16 14 -27 15 -83 6 -80 -13 -225 -17 -262 -6 -19 5 -33 19 -43 42 -8 19
-18 34 -22 34 -4 -1 -38 -12 -77 -25z"/>
<path d="M7756 2069 c-55 -10 -104 -23 -110 -29 -13 -13 -10 -123 4 -176 16
-55 36 -63 135 -53 44 5 161 15 260 24 99 9 195 21 213 27 41 12 56 45 41 88
l-11 30 -91 0 c-120 1 -234 16 -264 35 -13 9 -26 29 -30 45 -7 35 -7 35 -147
9z"/>
<path d="M13600 2071 c-14 -5 -59 -25 -100 -45 -83 -40 -143 -46 -203 -21 -42
17 -100 20 -128 5 -40 -22 -18 -200 27 -217 26 -10 137 16 154 36 11 14 46 22
150 34 109 13 146 22 197 47 96 48 132 111 81 144 -28 17 -143 28 -178 17z"/>
</g>
</svg>
