<?xml version="1.0" standalone="no"?>
<!DOCTYPE svg PUBLIC "-//W3C//DTD SVG 20010904//EN"
 "http://www.w3.org/TR/2001/REC-SVG-20010904/DTD/svg10.dtd">
<svg version="1.0" xmlns="http://www.w3.org/2000/svg"
 width="1247.000000pt" height="980.000000pt" viewBox="0 0 1247.000000 980.000000"
 preserveAspectRatio="xMidYMid meet">

<g transform="translate(0.000000,980.000000) scale(0.100000,-0.100000)"
fill="#000000" stroke="none">
<path d="M5885 9199 c-99 -44 -243 -107 -320 -141 -77 -33 -178 -78 -225 -98
-47 -20 -152 -66 -235 -102 -288 -126 -365 -160 -365 -165 0 -6 140 -331 182
-422 51 -111 53 -104 -64 -206 -287 -251 -745 -661 -747 -668 -1 -5 41 -58 94
-118 l96 -109 57 1 c57 0 57 0 88 47 17 26 37 64 44 86 19 58 9 154 -22 214
l-26 51 52 48 c29 26 106 95 172 153 65 57 151 133 190 167 l71 63 24 -21 c52
-46 101 -63 179 -63 63 -1 83 4 129 28 l54 28 22 -24 c12 -12 94 -104 181
-203 87 -99 207 -235 267 -302 l108 -123 192 6 c301 8 278 5 309 50 14 21 30
53 36 70 l9 31 -56 2 c-30 1 -59 7 -63 14 -4 7 -8 49 -8 95 0 45 -4 82 -8 82
-5 0 -7 -36 -4 -80 5 -90 6 -89 -68 -63 -47 17 -48 17 -42 55 2 21 2 38 -2 38
-4 0 -24 -9 -44 -19 -35 -18 -38 -23 -34 -53 6 -51 -16 -116 -49 -149 -31 -31
-72 -38 -92 -16 -68 71 -188 210 -198 228 -15 29 -20 77 -8 85 5 3 9 13 8 22
0 13 -3 12 -11 -5 -6 -13 -18 -23 -26 -23 -12 0 -12 -4 4 -22 51 -61 -175 170
-247 252 -232 265 -344 390 -350 390 -3 0 -24 -16 -48 -36 -23 -20 -44 -35
-46 -32 -2 2 -17 34 -34 71 l-30 67 27 14 c36 19 95 82 118 126 14 26 18 58
19 120 0 47 -2 93 -5 103 -4 15 43 39 310 156 l315 137 26 -35 c70 -94 137
-131 241 -131 37 0 78 4 91 9 27 11 11 41 166 -314 l70 -160 3 60 c2 49 7 61
25 70 21 11 20 15 -83 251 -199 455 -216 494 -228 493 -6 0 -92 -37 -191 -80z"/>
<path d="M6430 8270 c-6 -4 4 -39 28 -94 20 -49 38 -80 39 -70 1 11 4 53 5 95
l3 76 -32 0 c-18 0 -37 -3 -43 -7z"/>
<path d="M6230 7976 c0 -2 7 -7 16 -10 8 -3 12 -2 9 4 -6 10 -25 14 -25 6z"/>
<path d="M6270 7940 c0 -5 -7 -10 -15 -10 -8 0 -15 -7 -15 -15 0 -9 -9 -15
-24 -15 -21 0 -61 -30 -40 -30 5 0 2 -4 -6 -9 -18 -12 -37 -2 -19 11 9 5 3 6
-16 2 -16 -4 -31 -11 -33 -16 -2 -4 -8 -8 -14 -8 -6 0 -7 7 -4 16 3 8 2 12 -4
9 -26 -16 -8 -31 38 -31 55 0 96 -23 118 -66 12 -23 20 -29 37 -24 11 3 26 1
31 -3 6 -5 25 -6 43 -4 30 5 31 7 31 56 1 60 -35 121 -65 110 -9 -4 -14 -2
-10 3 3 6 -3 15 -14 22 -11 7 -19 8 -19 2z"/>
<path d="M5986 7831 c-10 -11 -16 -23 -13 -28 2 -4 1 -17 -4 -28 -7 -19 -8
-18 -8 4 -1 19 -4 21 -15 12 -11 -9 -15 -9 -19 1 -4 9 -6 9 -6 1 -1 -7 -17
-28 -38 -48 -23 -22 -31 -35 -21 -35 19 0 42 -26 30 -34 -4 -2 -9 -25 -11 -51
l-2 -46 38 17 c21 9 43 18 49 20 7 3 12 31 12 70 0 35 5 70 12 79 6 8 9 19 5
25 -4 7 2 14 14 17 24 6 28 23 5 23 -8 0 -12 5 -9 10 10 17 -1 11 -19 -9z
m-71 -121 c3 -5 2 -10 -4 -10 -5 0 -13 5 -16 10 -3 6 -2 10 4 10 5 0 13 -4 16
-10z"/>
<path d="M5805 7770 c-3 -5 -1 -10 4 -10 6 0 11 5 11 10 0 6 -2 10 -4 10 -3 0
-8 -4 -11 -10z"/>
<path d="M5800 7735 c33 -19 45 -19 26 0 -8 8 -23 15 -33 15 -14 -1 -13 -4 7
-15z"/>
<path d="M5710 7710 c0 -5 7 -7 15 -4 8 4 15 8 15 10 0 2 -7 4 -15 4 -8 0 -15
-4 -15 -10z"/>
<path d="M6102 7698 c-20 -20 -13 -27 17 -15 17 6 28 15 25 19 -7 12 -28 10
-42 -4z"/>
<path d="M5945 7516 c-28 -12 -29 -13 -9 -20 27 -8 54 2 54 20 0 17 -6 17 -45
0z"/>
<path d="M9685 6269 c-16 -6 -64 -26 -105 -44 -41 -18 -83 -36 -92 -39 -15 -4
-16 -10 -8 -32 18 -46 50 -67 182 -122 21 -9 30 -22 39 -57 11 -42 47 -86 80
-97 15 -5 -30 -94 -66 -130 -38 -38 -77 -42 -165 -19 -41 11 -79 16 -83 12 -5
-5 -7 -21 -5 -37 3 -25 8 -29 47 -36 47 -8 71 -23 71 -44 0 -9 -12 -14 -35
-14 -40 0 -41 -2 -19 -35 59 -91 200 -84 256 11 18 32 40 128 53 236 5 42 11
59 24 63 48 15 81 -36 56 -85 -14 -26 -13 -33 2 -65 9 -19 20 -35 24 -35 24 0
116 92 141 139 71 135 10 326 -130 408 -40 24 -59 28 -142 30 -52 1 -108 -2
-125 -8z"/>
<path d="M2975 6186 c-122 -31 -198 -107 -246 -246 -20 -58 -23 -86 -24 -246
l0 -180 -33 -67 c-54 -109 -91 -135 -345 -238 -105 -42 -156 -82 -189 -148
-22 -42 -28 -69 -28 -115 0 -124 49 -212 144 -261 53 -27 68 -29 150 -29 69 1
104 6 144 23 49 19 53 20 48 4 -24 -77 -78 -307 -90 -384 -27 -176 -60 -564
-49 -582 5 -9 118 0 171 13 17 5 32 5 32 2 1 -4 3 -90 5 -192 3 -102 6 -215 7
-252 3 -76 -12 -108 -37 -75 -8 11 -16 14 -20 8 -3 -6 -10 -130 -16 -275 -5
-151 -15 -297 -24 -342 -24 -125 -100 -269 -307 -582 -48 -74 -88 -137 -88
-142 0 -7 81 -72 223 -178 31 -24 64 -42 71 -39 31 12 363 401 469 549 72 100
89 143 116 298 11 61 20 88 24 75 4 -11 56 -229 117 -484 61 -256 112 -467
115 -469 4 -4 193 20 303 39 46 8 62 15 62 28 0 14 -60 502 -213 1725 -37 298
-56 420 -65 422 -7 1 -8 0 -2 -3 17 -8 11 -23 -10 -23 -11 0 -20 5 -20 11 0 7
-16 8 -45 3 -29 -4 -45 -3 -45 4 0 6 21 13 48 14 l47 4 -31 14 -31 13 -7 120
c-3 66 -6 155 -6 199 0 50 -4 78 -11 78 -11 0 -8 185 4 250 2 14 2 17 0 8 -2
-10 -13 -18 -24 -18 -15 0 -19 8 -21 43 -1 23 -2 56 -3 72 -1 17 -2 51 -3 78
-2 34 -6 47 -17 47 -9 0 -12 6 -9 15 4 8 10 12 15 9 5 -3 9 6 9 20 0 58 14 59
26 0 16 -73 17 -134 4 -134 -15 0 -12 -36 4 -50 8 -6 12 -19 9 -28 -4 -14 -3
-14 5 -3 6 8 9 30 6 50 -2 20 3 8 10 -26 13 -61 37 -144 83 -283 13 -41 27
-86 29 -100 3 -14 10 -34 15 -45 5 -11 22 -56 38 -100 48 -130 49 -131 106
-144 70 -15 235 -41 263 -41 22 0 23 3 18 38 -3 20 -8 93 -12 162 -3 69 -10
129 -15 134 -5 6 -9 22 -9 37 0 26 -1 26 -82 32 -96 7 -175 28 -235 63 -35 20
-49 39 -86 112 -37 73 -102 261 -159 455 -6 20 -15 37 -19 37 -5 0 -4 -12 1
-26 6 -14 10 -35 9 -47 -1 -16 -4 -12 -11 12 -7 27 -12 31 -19 20 -7 -9 -7 -4
-2 16 7 32 8 42 5 118 -1 28 -6 46 -12 42 -5 -3 -6 -13 -3 -22 5 -12 3 -14 -6
-8 -9 5 -11 20 -7 47 4 21 2 48 -4 58 -7 13 -7 26 -2 37 10 17 10 14 15 -66 2
-23 5 -27 17 -21 45 25 127 146 153 225 42 128 46 399 8 547 -37 146 -85 212
-186 259 -72 34 -152 43 -220 25z m372 -244 c13 -42 17 -91 18 -187 0 -116 -3
-135 -23 -176 -39 -80 -62 -94 -148 -94 -41 0 -74 0 -74 0 0 -1 11 -54 25
-119 29 -139 30 -150 10 -142 -8 3 -15 0 -15 -7 0 -8 -3 -9 -8 -1 -4 6 -25 14
-47 17 -22 4 -57 12 -78 18 l-38 10 26 25 c58 54 68 129 35 260 -26 102 -47
154 -72 181 -25 26 -27 69 -4 91 13 14 21 14 50 4 64 -23 181 37 267 136 23
28 46 49 50 46 4 -2 16 -30 26 -62z m-283 -838 c71 -78 53 -198 -71 -451 -35
-73 -68 -133 -73 -133 -6 0 -10 -7 -10 -17 0 -9 -3 -14 -6 -10 -3 3 0 23 7 44
7 21 12 60 10 87 -1 27 2 52 8 55 11 7 18 92 8 108 -4 6 0 16 8 23 8 7 15 27
15 46 0 18 5 36 10 39 6 3 10 19 10 36 0 16 -4 29 -10 29 -11 0 -13 39 -4 64
3 9 10 13 15 10 8 -5 14 22 11 56 -4 47 34 54 72 14z m163 -256 c-3 -8 -6 -5
-6 6 -1 11 2 17 5 13 3 -3 4 -12 1 -19z m30 -390 c-2 -13 -4 -5 -4 17 -1 22 1
32 4 23 2 -10 2 -28 0 -40z m553 -199 c0 -11 -4 -17 -10 -14 -5 3 -10 13 -10
21 0 8 5 14 10 14 6 0 10 -9 10 -21z m7 -81 c-3 -8 -6 -5 -6 6 -1 11 2 17 5
13 3 -3 4 -12 1 -19z m28 -258 c-3 -5 -12 -10 -18 -10 -7 0 -6 4 3 10 19 12
23 12 15 0z m-1012 -127 c5 -30 3 -33 -29 -39 -19 -3 -38 -4 -41 0 -4 3 2 6
13 6 10 0 26 5 34 11 12 8 10 9 -7 4 -27 -7 -32 11 -5 19 9 3 5 4 -9 2 -26 -3
-26 -3 -13 38 6 23 17 40 23 39 6 -2 12 9 12 25 1 15 5 5 9 -23 4 -27 10 -64
13 -82z m490 70 c-7 -2 -21 -2 -30 0 -10 3 -4 5 12 5 17 0 24 -2 18 -5z"/>
<path d="M9908 5360 c-48 -26 -141 -50 -193 -50 -22 0 -46 -4 -53 -8 -15 -10
-32 -66 -32 -108 0 -18 -8 -38 -20 -49 -11 -10 -17 -22 -13 -28 3 -5 2 -7 -4
-4 -11 7 -53 -35 -93 -93 -13 -19 -27 -37 -30 -40 -4 -4 -53 -69 -137 -183
-15 -21 -34 -44 -41 -52 -7 -8 -10 -20 -6 -26 4 -7 3 -9 -3 -6 -5 3 -36 -25
-67 -63 -36 -43 -74 -77 -101 -90 -38 -19 -194 -45 -204 -34 -2 2 4 4 15 5 11
0 5 5 -14 10 -22 7 -38 6 -50 -1 -14 -9 -13 -10 7 -4 16 4 21 3 17 -5 -4 -6
-2 -11 5 -11 29 0 -6 -15 -49 -21 -38 -5 -43 -8 -24 -14 28 -9 28 -21 1 -28
-14 -4 -20 -11 -16 -21 3 -8 2 -18 -4 -21 -5 -4 -7 -11 -4 -16 3 -5 -1 -6 -10
-3 -14 6 -14 8 2 19 19 15 20 14 -30 29 -6 2 -17 -2 -24 -9 -12 -13 -4 -18
145 -102 31 -17 63 -30 70 -27 7 2 11 0 8 -5 -3 -4 35 -21 85 -36 120 -37 172
-32 277 26 123 68 142 87 158 159 17 81 49 179 56 172 5 -5 11 -69 14 -143 4
-120 6 -135 24 -148 19 -12 19 -15 5 -31 -14 -15 -13 -18 5 -35 20 -18 27 -60
12 -67 -16 -6 -22 -106 -8 -121 8 -7 18 -53 23 -105 8 -87 8 -91 -12 -95 -15
-3 -13 -5 7 -6 15 0 30 4 33 9 3 6 12 10 18 9 9 0 8 -2 -1 -6 -6 -2 -10 -9 -6
-14 3 -5 -8 -9 -23 -9 -48 0 -197 21 -203 28 -7 10 -50 10 -50 0 0 -7 -78
-753 -149 -1433 -18 -167 -33 -308 -71 -675 -5 -52 -16 -162 -25 -244 -9 -82
-14 -150 -13 -151 5 -5 279 -38 282 -34 3 4 46 144 212 691 54 181 102 328
105 328 3 0 12 -15 21 -33 44 -92 115 -134 358 -214 136 -45 574 -168 620
-174 23 -4 27 3 66 118 l43 121 -147 62 c-192 81 -439 202 -477 233 l-30 25 1
179 c1 98 9 274 19 391 14 160 15 216 6 225 -21 21 -13 119 14 173 22 43 25
57 19 117 -4 44 -11 67 -19 67 -17 0 -25 32 -25 100 -1 134 -39 455 -65 544
-15 50 -11 75 6 44 5 -10 16 -15 24 -12 12 5 14 -2 8 -42 -4 -30 -3 -45 4 -41
11 7 37 -42 48 -93 4 -19 12 -38 18 -42 5 -3 10 -27 11 -52 1 -25 3 -41 4 -36
8 24 30 7 39 -32 6 -24 18 -61 27 -83 8 -22 16 -53 17 -70 l1 -30 8 30 c7 26
8 22 9 -22 0 -29 5 -53 11 -53 5 0 7 7 4 15 -4 8 -1 15 5 15 7 0 9 -17 6 -47
-5 -42 -4 -45 6 -23 17 36 25 478 10 583 -17 114 -85 388 -132 532 -52 157
-125 305 -185 380 -27 33 -63 81 -79 107 -17 27 -32 48 -35 48 -3 -1 -22 -10
-42 -20z m-114 -182 c7 -7 13 -16 13 -21 3 -33 15 -77 21 -77 5 0 14 -17 21
-37 8 -21 18 -40 22 -43 5 -4 10 -23 11 -43 2 -25 9 -39 20 -43 16 -5 36 -65
30 -87 -1 -5 8 -21 22 -37 13 -16 27 -46 31 -66 4 -21 13 -51 21 -66 8 -15 14
-36 14 -48 0 -11 12 -38 26 -60 15 -22 24 -44 20 -47 -4 -4 -11 -1 -16 7 -13
21 -12 3 1 -22 9 -17 13 -18 21 -7 7 10 8 4 4 -19 -3 -18 -2 -31 3 -28 5 3 9
-10 9 -30 0 -35 0 -34 -32 28 -18 35 -39 74 -47 88 -66 106 -181 309 -219 387
-63 129 -75 199 -43 254 19 32 28 35 47 17z m-937 -753 c8 -9 13 -19 10 -22
-6 -5 -37 21 -37 31 0 10 11 6 27 -9z m-20 -31 c-3 -3 -12 -4 -19 -1 -8 3 -5
6 6 6 11 1 17 -2 13 -5z m916 -541 c-7 -2 -19 -2 -25 0 -7 3 -2 5 12 5 14 0
19 -2 13 -5z"/>
<path d="M8734 4606 c11 -9 24 -16 30 -16 12 0 7 5 -24 19 -24 11 -24 11 -6
-3z"/>
<path d="M8800 4570 c34 -11 60 -11 35 0 -11 5 -29 8 -40 8 -16 0 -15 -2 5 -8z"/>
<path d="M8770 4545 l-25 -15 30 6 c24 4 27 3 15 -6 -12 -9 -12 -11 -1 -8 14
4 26 38 13 38 -4 -1 -18 -7 -32 -15z"/>
<path d="M8701 4514 c0 -11 3 -14 6 -6 3 7 2 16 -1 19 -3 4 -6 -2 -5 -13z"/>
<path d="M8685 4460 c-3 -5 -1 -10 4 -10 6 0 11 5 11 10 0 6 -2 10 -4 10 -3 0
-8 -4 -11 -10z"/>
<path d="M9500 4451 c0 -6 4 -13 10 -16 6 -3 7 1 4 9 -7 18 -14 21 -14 7z"/>
<path d="M3516 3865 c-11 -8 -15 -15 -9 -15 6 0 16 7 23 15 16 19 11 19 -14 0z"/>
<path d="M3436 3841 c-3 -4 6 -6 19 -3 14 2 25 6 25 8 0 8 -39 4 -44 -5z"/>
<path d="M11055 2018 c-2 -7 -6 -29 -9 -49 -6 -34 -39 -81 -63 -90 -7 -3 -6
-50 3 -154 8 -82 13 -168 12 -190 -2 -35 1 -42 26 -53 15 -8 32 -10 36 -6 7 8
133 458 142 508 2 14 -6 22 -32 32 -46 16 -110 18 -115 2z"/>
<path d="M1982 1523 l-44 -48 55 -50 c368 -337 346 -319 367 -300 26 24 25 41
-4 79 -13 18 -54 91 -90 164 -54 109 -69 131 -82 124 -27 -15 -63 -1 -98 39
-18 22 -39 39 -46 39 -8 0 -34 -21 -58 -47z"/>
<path d="M3677 1257 c-27 -28 -31 -29 -87 -23 -57 7 -60 6 -65 -17 -4 -13 -5
-46 -3 -73 l3 -49 273 -3 273 -2 -3 37 c-3 36 -4 37 -68 53 -36 9 -90 27 -120
39 -30 13 -82 33 -115 45 l-60 22 -28 -29z"/>
<path d="M8985 1117 c-38 -17 -117 -47 -175 -67 -104 -36 -105 -37 -105 -69
l0 -33 170 2 c94 1 217 5 275 9 l105 6 3 47 c1 25 -2 58 -8 72 -9 24 -14 26
-73 26 -49 0 -70 5 -90 20 -14 11 -27 20 -29 19 -1 -1 -34 -15 -73 -32z"/>
</g>
</svg>
